# xmcd CD database file
#
# Track frame offsets:
#	150
#	12398
#	23990
#	36792
#	49649
#	59827
#	71112
#	81280
#	93230
#	103778
#	117203
#	127351
#	138647
#	151224
#	162485
#	173219
#	184690
#	198149
#	210172
#	220385
#	231057
#	241023
#	254558
#	267061
#	280679
#	295091
#	303366
#	312846
#	322073
#
# Disc length: 4406 seconds
#
# Revision: 0
# Processed by: cddbd v1.4PL0 Copyright (c) Steve Scherf et al.
# Submitted via: CDex 1.50beta10
#
DISCID=a911341d
DTITLE=Hardrock Gunter - I'll Give 'em Rhythm
DYEAR=1999
DGENRE=Country
TTITLE0=Boogie Woogie on a Saturday Night
TTITLE1=I've Done Gone Hog Wild
TTITLE2=I Believe That Mountain Music Is Here To Stay
TTITLE3=Honky Tonk Blues
TTITLE4=Sixty Minute Man
TTITLE5=Hesitation Boogie
TTITLE6=Dixieland Boogie
TTITLE7=Silver and Gold
TTITLE8=The Senator From Tennessee
TTITLE9=You Played on My Piano
TTITLE10=Perfect Woman
TTITLE11=Honky Tonk Baby
TTITLE12=Where Have You Been
TTITLE13=Like Lovers Do
TTITLE14=Naptown, IND.
TTITLE15=First Last and Always Game of Love
TTITLE16=I'll Give 'em Rhythm
TTITLE17=Turn the Other Cheek
TTITLE18=I Put My Britches on Just Like Everybody Else
TTITLE19=It May Be Silly
TTITLE20=A Little Bit Aint Gonna Help Us Much
TTITLE21=Pins and Needles
TTITLE22=A White Sports Coat
TTITLE23=Half as Much
TTITLE24=Singing the Blues
TTITLE25=Columbus Stockade Blues (unissued)
TTITLE26=Hillbilly Twist
TTITLE27=Music Music Music (unissued)
TTITLE28=Rebel Guitar Picker
EXTD=YEAR: 1999
EXTT0=
EXTT1=
EXTT2=
EXTT3=
EXTT4=
EXTT5=
EXTT6=
EXTT7=
EXTT8=
EXTT9=
EXTT10=
EXTT11=
EXTT12=
EXTT13=
EXTT14=
EXTT15=
EXTT16=
EXTT17=
EXTT18=
EXTT19=
EXTT20=
EXTT21=
EXTT22=
EXTT23=
EXTT24=
EXTT25=
EXTT26=
EXTT27=
EXTT28=
PLAYORDER=
